<svg width="19" height="16" viewBox="0 0 19 16" fill="none" xmlns="http://www.w3.org/2000/svg">
<path d="M0.259333 2.00019V2C0.259333 1.00985 0.986276 0.25 1.86667 0.25H16.8C17.682 0.25 18.4167 1.01155 18.4167 2V14C18.4167 14.9885 17.682 15.75 16.8 15.75H1.86667C0.984732 15.75 0.250047 14.9885 0.25 14.0001C0.25 14.0001 0.25 14 0.25 14L0.259333 2.00019ZM16.8 14.25H17.05V14V8V7.75H16.8H1.86667H1.61667V8V14V14.25H1.86667H16.8ZM16.8 4.25H17.05V4V2V1.75H16.8H1.86667H1.61667V2V4V4.25H1.86667H16.8Z" fill="#898989" stroke="#DBF8F6" stroke-width="0.5"/>
</svg>
