<svg width="20" height="20" viewBox="0 0 20 20" fill="none" xmlns="http://www.w3.org/2000/svg">
<path d="M9.9915 1.66797C5.3915 1.66797 1.6665 5.4013 1.6665 10.0013C1.6665 14.6013 5.3915 18.3346 9.9915 18.3346C14.5998 18.3346 18.3332 14.6013 18.3332 10.0013C18.3332 5.4013 14.5998 1.66797 9.9915 1.66797ZM9.99984 16.668C6.3165 16.668 3.33317 13.6846 3.33317 10.0013C3.33317 6.31797 6.3165 3.33464 9.99984 3.33464C13.6832 3.33464 16.6665 6.31797 16.6665 10.0013C16.6665 13.6846 13.6832 16.668 9.99984 16.668Z" fill="#4F4F4F"/>
<path d="M10.4165 5.83203H9.1665V10.832L13.5415 13.457L14.1665 12.432L10.4165 10.207V5.83203Z" fill="#4F4F4F"/>
</svg>
