<svg width="17" height="14" viewBox="0 0 17 14" fill="none" xmlns="http://www.w3.org/2000/svg">
<path d="M16.6815 7.37263C16.5682 7.19619 16.4005 7.06922 16.2082 6.98209C16.0155 6.89496 15.7943 6.84797 15.5593 6.84766H11.3194C11.2849 6.84766 11.2531 6.85668 11.222 6.86726C11.1912 6.85668 11.1595 6.84766 11.1249 6.84766H0.311187C0.139412 6.84766 0 6.98676 0 7.15884V9.33715C0.00124475 10.0239 0.557958 10.5807 1.24475 10.5819H10.1914C10.8782 10.5807 11.4349 10.0239 11.4361 9.33715V8.71478H15.5593C15.8727 8.71384 16.1615 8.63169 16.3911 8.47952C16.5057 8.40297 16.6065 8.30743 16.6815 8.1898C16.7568 8.07311 16.8044 7.9309 16.8041 7.78122C16.8044 7.63154 16.7568 7.48932 16.6815 7.37263ZM10.6308 9.77655C10.5162 9.89013 10.3622 9.95952 10.1914 9.95952H1.24475C1.07391 9.95952 0.919868 9.89013 0.805351 9.77655C0.691768 9.66234 0.622373 9.5083 0.622373 9.33715V7.47003H10.8137V9.33715C10.8137 9.5083 10.7443 9.66234 10.6308 9.77655ZM16.1568 7.85559C16.1279 7.90227 16.0585 7.96575 15.9524 8.01336C15.8472 8.06097 15.7093 8.09271 15.5593 8.0924H11.4361V7.47003H15.5593C15.7594 7.4691 15.9374 7.52729 16.046 7.60073C16.1005 7.63683 16.1372 7.67572 16.1568 7.70684C16.1764 7.73858 16.1814 7.76006 16.1817 7.78122C16.1814 7.80238 16.1764 7.82385 16.1568 7.85559Z" fill="#2C2C2C"/>
<path d="M1.55533 8.08594C1.38355 8.08594 1.24414 8.22504 1.24414 8.39712V9.0195C1.24414 9.19158 1.38355 9.33068 1.55533 9.33068C1.7271 9.33068 1.86651 9.19158 1.86651 9.0195V8.39712C1.86651 8.22504 1.7271 8.08594 1.55533 8.08594Z" fill="#2C2C2C"/>
<path d="M2.03041 2.70335C1.67939 3.18538 1.55492 3.68794 1.55616 4.12516C1.56083 5.0024 2.01423 5.61543 2.03041 5.64251C2.13123 5.78161 2.32604 5.81273 2.46514 5.7119C2.60393 5.61139 2.63473 5.41752 2.53484 5.27811L2.53422 5.27717C2.52302 5.26597 2.17418 4.75033 2.17853 4.12516C2.17978 3.79966 2.26287 3.44428 2.53422 3.06837C2.88524 2.58634 3.00971 2.08346 3.00847 1.64625C3.0038 0.769012 2.5504 0.155663 2.53422 0.12859C2.4334 -0.0105106 2.23891 -0.0416294 2.0998 0.0591951C1.96102 0.159708 1.93021 0.353578 2.0301 0.492989L2.03072 0.493923C2.04192 0.505126 2.39076 1.02107 2.38641 1.64625C2.38485 1.97175 2.30177 2.32744 2.03041 2.70335Z" fill="#2C2C2C"/>
<path d="M8.56459 2.70335C8.21357 3.18538 8.0891 3.68794 8.09034 4.12516C8.09501 5.0024 8.54841 5.61543 8.56459 5.64251C8.66541 5.78161 8.86022 5.81273 8.99932 5.7119C9.13811 5.61139 9.16891 5.41752 9.06902 5.27811L9.0684 5.27717C9.0572 5.26597 8.70836 4.75033 8.71271 4.12516C8.71396 3.79966 8.79705 3.44428 9.0684 3.06837C9.41942 2.58634 9.54389 2.08346 9.54265 1.64625C9.53798 0.769012 9.08458 0.155663 9.0684 0.12859C8.96758 -0.0105106 8.77309 -0.0416294 8.63398 0.0591951C8.4952 0.159708 8.46439 0.353578 8.56428 0.492989L8.5649 0.493923C8.5761 0.505126 8.92494 1.02107 8.92059 1.64625C8.91903 1.97175 8.83594 2.32744 8.56459 2.70335Z" fill="#2C2C2C"/>
<path d="M5.2975 2.70366C4.94648 3.18569 4.82201 3.68825 4.82325 4.12516C4.82792 5.0024 5.28132 5.61543 5.2975 5.64251C5.39832 5.78161 5.59313 5.81273 5.73223 5.7119C5.87102 5.61139 5.90182 5.41752 5.80193 5.27811L5.80131 5.27717C5.79011 5.26597 5.44127 4.75033 5.44562 4.12516C5.44687 3.79997 5.52996 3.4446 5.80131 3.06868C6.15233 2.58634 6.2768 2.08346 6.27556 1.64625C6.27089 0.769012 5.81749 0.155663 5.80131 0.12859C5.70049 -0.0105106 5.50568 -0.0416294 5.36689 0.0591951C5.22811 0.159708 5.1973 0.353578 5.29719 0.492989L5.29781 0.493923C5.30901 0.505126 5.65754 1.02076 5.6535 1.64625C5.65194 1.97175 5.56885 2.32744 5.2975 2.70366Z" fill="#2C2C2C"/>
<path d="M10.2697 13.3777H9.09807C9.11083 13.3543 9.12514 13.3322 9.13696 13.308C9.24059 13.0923 9.29723 12.8428 9.29723 12.5767C9.29692 12.3617 9.22845 12.1703 9.13945 12.0103C9.00409 11.7698 8.8208 11.5871 8.67081 11.457C8.52081 11.3279 8.40256 11.2532 8.39323 11.2473C8.29178 11.1832 8.16326 11.1832 8.06181 11.2473C8.04937 11.2551 7.84367 11.3842 7.62646 11.6045C7.51786 11.7153 7.40583 11.8494 7.3159 12.0103C7.22659 12.1706 7.15844 12.3617 7.15813 12.5767C7.15844 12.8726 7.23157 13.1465 7.35915 13.3774H6.60857C6.62133 13.354 6.63565 13.3319 6.64747 13.3077C6.7511 13.092 6.80773 12.8424 6.80773 12.5764C6.80742 12.3613 6.73896 12.17 6.64996 12.01C6.51459 11.7695 6.33131 11.5868 6.18131 11.4567C6.03132 11.3279 5.91307 11.2532 5.90373 11.2473C5.80229 11.1832 5.67377 11.1832 5.57232 11.2473C5.55987 11.2551 5.35418 11.3842 5.13697 11.6045C5.02837 11.7153 4.91634 11.8494 4.82641 12.0103C4.7371 12.1706 4.66895 12.3617 4.66863 12.5767C4.66895 12.8726 4.74207 13.1465 4.86966 13.3774H4.18349C4.18754 13.3693 4.19283 13.3615 4.19688 13.3531C4.30019 13.1378 4.35714 12.8882 4.35714 12.6224C4.35683 12.4074 4.28836 12.216 4.19936 12.0558C4.064 11.8152 3.88071 11.6325 3.73072 11.5025C3.58073 11.3733 3.46247 11.2986 3.45314 11.2927C3.35169 11.2286 3.22317 11.2286 3.12172 11.2927C3.10928 11.3005 2.90358 11.4297 2.68637 11.6503C2.57777 11.7608 2.46574 11.8949 2.37581 12.0558C2.2865 12.2163 2.21835 12.4074 2.21804 12.6224C2.21835 12.8988 2.28059 13.1564 2.39261 13.3777H1.24527C1.07349 13.3777 0.934082 13.5168 0.934082 13.6889C0.934082 13.861 1.07349 14.0001 1.24527 14.0001H10.2697C10.4415 14.0001 10.5809 13.861 10.5809 13.6889C10.5809 13.5168 10.4415 13.3777 10.2697 13.3777ZM7.85923 12.3134C7.93734 12.1715 8.07364 12.0284 8.19065 11.9285C8.20372 11.9173 8.21492 11.9089 8.22706 11.8986C8.2812 11.9431 8.34064 11.9948 8.40007 12.0567C8.47818 12.1379 8.55131 12.2313 8.60079 12.3224C8.65058 12.4142 8.67516 12.5001 8.67516 12.577C8.67579 12.8116 8.60515 13.0189 8.51055 13.1508C8.46356 13.2171 8.4119 13.2641 8.36398 13.2924C8.31543 13.3207 8.27311 13.3322 8.22768 13.3326C8.18256 13.3322 8.13992 13.3207 8.09138 13.2924C8.0198 13.2504 7.9389 13.1642 7.87915 13.0388C7.81878 12.9137 7.78019 12.7528 7.78019 12.577C7.77988 12.4976 7.80633 12.4086 7.85923 12.3134ZM5.36974 12.3134C5.44785 12.1715 5.58415 12.0284 5.70115 11.9285C5.71422 11.9173 5.72542 11.9089 5.73756 11.8986C5.79171 11.9431 5.85114 11.9948 5.91058 12.0567C5.98869 12.1379 6.06182 12.2313 6.1113 12.3224C6.16109 12.4142 6.18567 12.5001 6.18567 12.577C6.18629 12.8116 6.11565 13.0189 6.02105 13.1508C5.97406 13.2171 5.92241 13.2641 5.87448 13.2924C5.82594 13.3207 5.78362 13.3322 5.73818 13.3326C5.69306 13.3322 5.65043 13.3207 5.60188 13.2924C5.53031 13.2504 5.4494 13.1642 5.38965 13.0388C5.32928 12.9137 5.2907 12.7528 5.2907 12.577C5.29039 12.4976 5.31684 12.4086 5.36974 12.3134ZM3.15129 13.3375C3.07971 13.2955 2.99881 13.2093 2.93875 13.0839C2.87869 12.9591 2.83979 12.7986 2.8401 12.6227C2.83979 12.5434 2.86624 12.4541 2.91914 12.3589C2.99725 12.217 3.13355 12.0738 3.25056 11.9739C3.26363 11.9627 3.27483 11.9543 3.28697 11.9437C3.34111 11.9885 3.40055 12.0402 3.45967 12.1021C3.53778 12.1833 3.61091 12.2767 3.66039 12.3679C3.71018 12.4597 3.73476 12.5456 3.73476 12.6224C3.73539 12.8571 3.66506 13.0643 3.57015 13.1959C3.52316 13.2622 3.4715 13.3092 3.42358 13.3375C3.37503 13.3659 3.33271 13.3774 3.28728 13.3777C3.24215 13.3774 3.19983 13.3659 3.15129 13.3375Z" fill="#2C2C2C"/>
</svg>
