<svg width="19" height="14" viewBox="0 0 19 14" fill="none" xmlns="http://www.w3.org/2000/svg">
<path d="M12.9234 0.0746193C12.831 0.120812 12.7279 0.213198 12.6746 0.294924L12.5787 0.440609L12.568 2.31675L12.5574 4.18934L10.6848 4.2L8.80863 4.21066L8.66294 4.3066C8.57767 4.36345 8.48883 4.46294 8.44264 4.55533C8.36802 4.70812 8.36802 4.75076 8.36802 6.54873V8.38223L6.49188 8.39289L4.61574 8.40355L4.47005 8.49949C4.38477 8.55634 4.29594 8.65584 4.24975 8.74822C4.17513 8.90102 4.17513 8.94366 4.17513 10.7416V12.5787H2.33807C0.540102 12.5787 0.497462 12.5787 0.34467 12.6533C0.252284 12.6995 0.152792 12.7883 0.0959391 12.8736C0.0142132 12.998 0 13.0548 0 13.2893C0 13.5239 0.0142132 13.5807 0.0959391 13.7051C0.152792 13.7904 0.252284 13.8792 0.34467 13.9254C0.501015 14 0.529442 14 2.78934 14C5.04924 14 5.07766 14 5.23401 13.9254C5.3264 13.8792 5.42589 13.7904 5.48274 13.7051L5.57868 13.5594L5.58934 11.6832L5.6 9.81066L7.47259 9.8L9.34873 9.78934L9.49442 9.6934C9.5797 9.63655 9.66853 9.53706 9.71472 9.44467C9.78934 9.29188 9.78934 9.24924 9.78934 7.45127V5.61421H11.6264C13.4244 5.61421 13.467 5.61421 13.6198 5.53959C13.7122 5.4934 13.8117 5.40457 13.8685 5.31929L13.9645 5.1736L13.9751 3.29746L13.9858 1.42132H15.8193C17.6173 1.42132 17.6599 1.42132 17.8127 1.3467C17.9051 1.30051 18.0046 1.21168 18.0614 1.1264C18.1431 1.00203 18.1574 0.945178 18.1574 0.71066C18.1574 0.476142 18.1431 0.41929 18.0614 0.294924C18.0046 0.209644 17.9051 0.120812 17.8127 0.0746193C17.6563 0 17.6279 0 15.3645 0C13.0975 0 13.0761 0 12.9234 0.0746193Z" fill="#898989"/>
<path d="M13.1583 7.95476C12.9522 7.9974 12.7568 8.14664 12.668 8.33141C12.604 8.46289 12.5933 8.54106 12.604 8.71872C12.6182 8.97811 12.7071 9.13801 12.9096 9.27659C13.0268 9.35832 13.0695 9.36187 13.638 9.37253L14.2421 9.38319L12.501 11.1314C11.0832 12.5527 10.7492 12.9045 10.7137 13.0218C10.5573 13.5121 10.8345 13.9563 11.3177 13.9918C11.7086 14.0202 11.6411 14.0771 13.5456 12.1761L15.2939 10.435L15.3045 11.039C15.3152 11.6076 15.3187 11.6502 15.4005 11.7675C15.5568 11.9913 15.6989 12.0624 16.0081 12.0624C16.3137 12.0624 16.4593 11.9913 16.605 11.7781C16.74 11.5827 16.7578 11.3375 16.7472 9.88421L16.7365 8.50553L16.6441 8.33141C16.5801 8.20705 16.5055 8.12177 16.3812 8.04715L16.2106 7.94055L14.7502 7.93344C13.9472 7.92989 13.2294 7.94055 13.1583 7.95476Z" fill="#898989"/>
</svg>
