<svg width="14" height="14" viewBox="0 0 14 14" fill="none" xmlns="http://www.w3.org/2000/svg">
<path d="M1.75102 0.0571232C1.28713 0.176743 0.852411 0.453911 0.516892 0.844863C0.341839 1.04909 0.134692 1.46338 0.0588361 1.76097C0.000484955 1.98854 0.000484957 2.09649 0.000484957 7.0009C0.000484957 12.696 -0.0228555 12.1942 0.254312 12.7485C0.371014 12.9848 0.435201 13.0665 0.68611 13.3174C0.93702 13.5683 1.01871 13.6325 1.25503 13.7492C1.80937 14.0264 1.4155 14.006 6.23238 13.9943C10.9209 13.9855 10.5387 14.0001 11.1572 13.793C12.3768 13.3845 13.3862 12.375 13.7947 11.1555C14.0018 10.537 13.9872 10.9192 13.996 6.23067C14.0077 1.41379 14.0281 1.80766 13.7509 1.25332C13.6342 1.017 13.57 0.935308 13.3191 0.684398C13.0682 0.433488 12.9865 0.369302 12.7502 0.2526C12.1959 -0.0245686 12.7006 -0.00122833 6.99095 0.00168991C2.12738 0.00168991 1.964 0.0046072 1.75102 0.0571232ZM12.0704 1.00825C12.5226 1.16579 12.8669 1.5159 13.004 1.96812C13.0536 2.13442 13.0565 2.35032 13.0565 6.14022V10.1373L12.9894 10.4349C12.7152 11.6719 11.8283 12.6201 10.6437 12.9381C10.1682 13.0665 9.8589 13.0723 5.86477 13.0636C2.11863 13.0548 2.11571 13.0548 1.93482 12.9936C1.4826 12.836 1.13833 12.4859 1.00121 12.0337C0.951608 11.8674 0.94869 11.6223 0.94869 7.0009C0.94869 2.3795 0.951608 2.13442 1.00121 1.96812C1.16751 1.42254 1.61389 1.04034 2.17406 0.961565C2.27034 0.949895 4.49644 0.941142 7.11932 0.94406L11.8895 0.946978L12.0704 1.00825Z" fill="#898989"/>
<path d="M3.47764 3.7927C3.3376 3.88023 3.26758 4.01152 3.26758 4.20116C3.26758 4.3908 3.3376 4.52209 3.47764 4.60962C3.571 4.66797 3.63227 4.66797 7.00205 4.66797C10.3718 4.66797 10.4331 4.66797 10.5265 4.60962C10.6665 4.52209 10.7365 4.3908 10.7365 4.20116C10.7365 4.01152 10.6665 3.88023 10.5265 3.7927C10.4331 3.73435 10.3718 3.73435 7.00205 3.73435C3.63227 3.73435 3.571 3.73435 3.47764 3.7927Z" fill="#898989"/>
<path d="M3.47764 6.59348C3.3376 6.68101 3.26758 6.8123 3.26758 7.00194C3.26758 7.19158 3.3376 7.32287 3.47764 7.4104C3.571 7.46875 3.63227 7.46875 7.00205 7.46875C10.3718 7.46875 10.4331 7.46875 10.5265 7.4104C10.6665 7.32287 10.7365 7.19158 10.7365 7.00194C10.7365 6.8123 10.6665 6.68101 10.5265 6.59348C10.4331 6.53513 10.3718 6.53513 7.00205 6.53513C3.63227 6.53513 3.571 6.53513 3.47764 6.59348Z" fill="#898989"/>
<path d="M3.47764 9.39036C3.3376 9.47789 3.26758 9.60918 3.26758 9.79882C3.26758 9.98846 3.3376 10.1197 3.47764 10.2073C3.571 10.2656 3.63227 10.2656 7.00205 10.2656C10.3718 10.2656 10.4331 10.2656 10.5265 10.2073C10.6665 10.1197 10.7365 9.98846 10.7365 9.79882C10.7365 9.60918 10.6665 9.47789 10.5265 9.39036C10.4331 9.33201 10.3718 9.33201 7.00205 9.33201C3.63227 9.33201 3.571 9.33201 3.47764 9.39036Z" fill="#898989"/>
</svg>
