<svg width="24" height="16" viewBox="0 0 24 16" fill="none" xmlns="http://www.w3.org/2000/svg">
<path d="M23.3378 8.42402C23.1794 8.22243 22.9447 8.07737 22.6757 7.97781C22.4062 7.87826 22.0966 7.82457 21.7679 7.82422H15.8362C15.7879 7.82422 15.7434 7.83453 15.6999 7.84662C15.6568 7.83453 15.6124 7.82422 15.5641 7.82422H0.435359C0.195041 7.82422 0 7.98315 0 8.17976V10.6686C0.00174144 11.4532 0.780599 12.0893 1.74144 12.0907H14.258C15.2188 12.0893 15.9977 11.4532 15.9994 10.6686V9.95748H21.7679C22.2064 9.95641 22.6104 9.86255 22.9317 9.68869C23.0919 9.60122 23.2329 9.49207 23.3378 9.35768C23.4432 9.22435 23.5098 9.06186 23.5094 8.89085C23.5098 8.71983 23.4432 8.55735 23.3378 8.42402ZM14.8727 11.1706C14.7125 11.3004 14.497 11.3796 14.258 11.3796H1.74144C1.50242 11.3796 1.28692 11.3004 1.12671 11.1706C0.967803 11.0401 0.870718 10.8641 0.870718 10.6686V8.5353H15.1287V10.6686C15.1287 10.8641 15.0316 11.0401 14.8727 11.1706ZM22.6038 8.97582C22.5633 9.02915 22.4663 9.10168 22.3178 9.15608C22.1707 9.21048 21.9778 9.24675 21.7679 9.24639H15.9994V8.5353H21.7679C22.0479 8.53424 22.2969 8.60072 22.4488 8.68463C22.525 8.72588 22.5764 8.77032 22.6038 8.80587C22.6313 8.84214 22.6382 8.86667 22.6387 8.89085C22.6382 8.91502 22.6313 8.93956 22.6038 8.97582Z" fill="#9290FE"/>
<path d="M2.17706 9.24219C1.93674 9.24219 1.7417 9.40112 1.7417 9.59773V10.3088C1.7417 10.5054 1.93674 10.6644 2.17706 10.6644C2.41738 10.6644 2.61242 10.5054 2.61242 10.3088V9.59773C2.61242 9.40112 2.41738 9.24219 2.17706 9.24219Z" fill="#9290FE"/>
<path d="M2.84026 3.08868C2.34917 3.63942 2.17503 4.21362 2.17677 4.71316C2.1833 5.71544 2.81762 6.41585 2.84026 6.44679C2.98131 6.60571 3.25385 6.64127 3.44845 6.52607C3.64262 6.41123 3.68572 6.18973 3.54597 6.03045L3.5451 6.02938C3.52943 6.01658 3.04139 5.42744 3.04749 4.71316C3.04923 4.34126 3.16547 3.93523 3.5451 3.50573C4.03619 2.955 4.21033 2.38044 4.20859 1.8809C4.20206 0.878627 3.56774 0.177851 3.5451 0.146919C3.40405 -0.0120088 3.13195 -0.0475633 2.93734 0.0676327C2.74317 0.182473 2.70007 0.403976 2.83982 0.56326L2.84069 0.564326C2.85637 0.577126 3.3444 1.16662 3.33831 1.8809C3.33613 2.2528 3.21989 2.65919 2.84026 3.08868Z" fill="#9290FE"/>
<path d="M11.9823 3.08868C11.4913 3.63942 11.3171 4.21362 11.3189 4.71316C11.3254 5.71544 11.9597 6.41585 11.9823 6.44679C12.1234 6.60571 12.3959 6.64127 12.5905 6.52607C12.7847 6.41123 12.8278 6.18973 12.6881 6.03045L12.6872 6.02938C12.6715 6.01658 12.1835 5.42744 12.1896 4.71316C12.1913 4.34126 12.3076 3.93523 12.6872 3.50573C13.1783 2.955 13.3524 2.38044 13.3507 1.8809C13.3442 0.878627 12.7098 0.177851 12.6872 0.146919C12.5461 -0.0120088 12.274 -0.0475633 12.0794 0.0676327C11.8853 0.182473 11.8422 0.403976 11.9819 0.56326L11.9828 0.564326C11.9985 0.577126 12.4865 1.16662 12.4804 1.8809C12.4782 2.2528 12.362 2.65919 11.9823 3.08868Z" fill="#9290FE"/>
<path d="M7.41155 3.08904C6.92046 3.63977 6.74632 4.21398 6.74806 4.71316C6.75459 5.71544 7.38891 6.41585 7.41155 6.44679C7.5526 6.60571 7.82514 6.64127 8.01974 6.52607C8.21391 6.41123 8.25701 6.18973 8.11726 6.03045L8.11639 6.02938C8.10072 6.01658 7.61268 5.42744 7.61878 4.71316C7.62052 4.34162 7.73676 3.93559 8.11639 3.50609C8.60748 2.955 8.78162 2.38044 8.77988 1.8809C8.77335 0.878627 8.13903 0.177851 8.11639 0.146919C7.97534 -0.0120088 7.7028 -0.0475633 7.50863 0.0676327C7.31446 0.182473 7.27136 0.403976 7.41111 0.56326L7.41198 0.564326C7.42765 0.577126 7.91526 1.16626 7.9096 1.8809C7.90742 2.2528 7.79118 2.65919 7.41155 3.08904Z" fill="#9290FE"/>
<path d="M14.3674 15.2859H12.7283C12.7461 15.2592 12.7662 15.2339 12.7827 15.2062C12.9277 14.9598 13.0069 14.6747 13.0069 14.3707C13.0065 14.125 12.9107 13.9063 12.7862 13.7236C12.5968 13.4488 12.3404 13.2401 12.1305 13.0914C11.9207 12.9439 11.7553 12.8586 11.7422 12.8518C11.6003 12.7786 11.4205 12.7786 11.2785 12.8518C11.2611 12.8607 10.9734 13.0082 10.6695 13.26C10.5175 13.3865 10.3608 13.5398 10.235 13.7236C10.11 13.9067 10.0147 14.125 10.0143 14.3707C10.0147 14.7088 10.117 15.0217 10.2955 15.2855H9.24541C9.26326 15.2588 9.28329 15.2336 9.29983 15.2059C9.44481 14.9595 9.52404 14.6743 9.52404 14.3703C9.5236 14.1247 9.42783 13.906 9.30331 13.7232C9.11393 13.4484 8.85751 13.2397 8.64766 13.0911C8.43782 12.9439 8.27238 12.8586 8.25932 12.8518C8.11739 12.7786 7.93759 12.7786 7.79567 12.8518C7.77825 12.8607 7.49048 13.0082 7.1866 13.26C7.03466 13.3865 6.87793 13.5398 6.75211 13.7236C6.62716 13.9067 6.53182 14.125 6.53138 14.3707C6.53182 14.7088 6.63413 15.0217 6.81262 15.2855H5.85266C5.85832 15.2763 5.86572 15.2674 5.87138 15.2578C6.01592 15.0117 6.09559 14.7266 6.09559 14.423C6.09515 14.1773 5.99937 13.9586 5.87486 13.7755C5.68548 13.5007 5.42905 13.292 5.21921 13.1434C5.00937 12.9958 4.84393 12.9105 4.83087 12.9037C4.68894 12.8305 4.50914 12.8305 4.36721 12.9037C4.3498 12.9126 4.06203 13.0602 3.75815 13.3122C3.60621 13.4385 3.44948 13.5917 3.32366 13.7755C3.19871 13.959 3.10337 14.1773 3.10293 14.423C3.10337 14.7387 3.19044 15.0331 3.34717 15.2859H1.742C1.50168 15.2859 1.30664 15.4448 1.30664 15.6414C1.30664 15.838 1.50168 15.9969 1.742 15.9969H14.3674C14.6077 15.9969 14.8028 15.838 14.8028 15.6414C14.8028 15.4448 14.6077 15.2859 14.3674 15.2859ZM10.9951 14.0699C11.1044 13.9078 11.2951 13.7442 11.4588 13.6301C11.4771 13.6173 11.4927 13.6077 11.5097 13.596C11.5855 13.6468 11.6686 13.7058 11.7518 13.7766C11.861 13.8694 11.9634 13.976 12.0326 14.0802C12.1022 14.1851 12.1366 14.2832 12.1366 14.371C12.1375 14.6391 12.0387 14.8759 11.9063 15.0267C11.8406 15.1024 11.7683 15.1561 11.7013 15.1884C11.6334 15.2208 11.5741 15.2339 11.5106 15.2343C11.4475 15.2339 11.3878 15.2208 11.3199 15.1884C11.2198 15.1404 11.1066 15.042 11.023 14.8987C10.9385 14.7557 10.8845 14.5719 10.8845 14.371C10.8841 14.2804 10.9211 14.1787 10.9951 14.0699ZM7.51225 14.0699C7.62152 13.9078 7.81221 13.7442 7.9759 13.6301C7.99419 13.6173 8.00986 13.6077 8.02684 13.596C8.10259 13.6468 8.18575 13.7058 8.2689 13.7766C8.37818 13.8694 8.48048 13.976 8.54971 14.0802C8.61936 14.1851 8.65376 14.2832 8.65376 14.371C8.65463 14.6391 8.5558 14.8759 8.42345 15.0267C8.35771 15.1024 8.28544 15.1561 8.2184 15.1884C8.15048 15.2208 8.09127 15.2339 8.02771 15.2343C7.96458 15.2339 7.90494 15.2208 7.83702 15.1884C7.73689 15.1404 7.6237 15.042 7.54011 14.8987C7.45565 14.7557 7.40167 14.5719 7.40167 14.371C7.40123 14.2804 7.43824 14.1787 7.51225 14.0699ZM4.40857 15.24C4.30844 15.192 4.19525 15.0935 4.11122 14.9502C4.0272 14.8076 3.97278 14.6242 3.97321 14.4233C3.97278 14.3326 4.00978 14.2306 4.0838 14.1218C4.19307 13.9597 4.38376 13.7961 4.54745 13.682C4.56574 13.6692 4.58141 13.6596 4.59839 13.6475C4.67414 13.6987 4.7573 13.7577 4.84001 13.8285C4.94929 13.9213 5.0516 14.0279 5.12082 14.1321C5.19048 14.237 5.22487 14.3351 5.22487 14.423C5.22574 14.691 5.12735 14.9278 4.99457 15.0782C4.92883 15.1539 4.85656 15.2076 4.78951 15.24C4.7216 15.2723 4.66239 15.2855 4.59882 15.2859C4.5357 15.2855 4.47649 15.2723 4.40857 15.24Z" fill="#9290FE"/>
</svg>
