<svg width="16" height="16" viewBox="0 0 16 16" fill="none" xmlns="http://www.w3.org/2000/svg">
<path d="M7.99885 4.32969C7.27316 4.32969 6.56377 4.54489 5.96038 4.94806C5.35699 5.35123 4.8867 5.92427 4.60899 6.59473C4.33128 7.26518 4.25862 8.00292 4.40019 8.71467C4.54177 9.42642 4.89122 10.0802 5.40437 10.5933C5.91751 11.1065 6.57129 11.4559 7.28304 11.5975C7.99478 11.7391 8.73253 11.6664 9.40298 11.3887C10.0734 11.111 10.6465 10.6407 11.0496 10.0373C11.4528 9.43394 11.668 8.72454 11.668 7.99885C11.667 7.02604 11.2801 6.09336 10.5922 5.40548C9.90434 4.7176 8.97166 4.3307 7.99885 4.32969ZM7.99885 10.445C7.51506 10.445 7.04213 10.3015 6.63987 10.0327C6.23761 9.76394 5.92408 9.38191 5.73894 8.93494C5.5538 8.48797 5.50536 7.99614 5.59975 7.52164C5.69413 7.04714 5.9271 6.61129 6.26919 6.26919C6.61129 5.9271 7.04714 5.69413 7.52164 5.59975C7.99614 5.50536 8.48797 5.5538 8.93494 5.73894C9.38191 5.92408 9.76394 6.23761 10.0327 6.63987C10.3015 7.04213 10.445 7.51506 10.445 7.99885C10.445 8.6476 10.1872 9.26978 9.72851 9.72851C9.26978 10.1872 8.6476 10.445 7.99885 10.445ZM14.7256 8.16397C14.7287 8.05389 14.7287 7.94382 14.7256 7.83374L15.8661 6.40888C15.9259 6.33407 15.9673 6.24626 15.987 6.15252C16.0066 6.05878 16.004 5.96174 15.9793 5.86921C15.7923 5.16642 15.5126 4.49163 15.1476 3.86264C15.0998 3.78033 15.0335 3.71031 14.9538 3.65815C14.8742 3.606 14.7835 3.57315 14.689 3.56223L12.8758 3.36042C12.8004 3.28092 12.7239 3.20448 12.6465 3.1311L12.4324 1.31334C12.4214 1.21871 12.3885 1.12797 12.3362 1.04834C12.2839 0.96871 12.2137 0.902399 12.1312 0.854691C11.502 0.490334 10.8273 0.210933 10.1247 0.0237793C10.0321 -0.000836977 9.93501 -0.00335472 9.84127 0.016429C9.74753 0.0362127 9.65975 0.0777444 9.585 0.137676L8.16397 1.27206C8.05389 1.27206 7.94382 1.27206 7.83374 1.27206L6.40888 0.133854C6.33407 0.0740532 6.24626 0.0326602 6.15252 0.0130097C6.05878 -0.00664072 5.96174 -0.00399922 5.86921 0.0207216C5.16653 0.208022 4.49179 0.487686 3.86264 0.852398C3.78033 0.900193 3.71031 0.966544 3.65815 1.04617C3.606 1.12579 3.57315 1.21649 3.56223 1.31104L3.36042 3.12728C3.28092 3.20321 3.20448 3.27965 3.1311 3.3566L1.31334 3.56528C1.21871 3.57629 1.12797 3.60926 1.04834 3.66155C0.96871 3.71384 0.902399 3.78401 0.854691 3.86646C0.490334 4.49569 0.210933 5.17042 0.0237793 5.87303C-0.000836977 5.96562 -0.00335472 6.0627 0.016429 6.15644C0.0362127 6.25018 0.0777444 6.33796 0.137676 6.41271L1.27206 7.83374C1.27206 7.94382 1.27206 8.05389 1.27206 8.16397L0.133854 9.58882C0.0740532 9.66363 0.0326602 9.75145 0.0130097 9.84518C-0.00664072 9.93892 -0.00399922 10.036 0.0207216 10.1285C0.207688 10.8313 0.487369 11.5061 0.852398 12.1351C0.900193 12.2174 0.966544 12.2874 1.04617 12.3396C1.12579 12.3917 1.21649 12.4246 1.31104 12.4355L3.12422 12.6373C3.20015 12.7168 3.27659 12.7932 3.35354 12.8666L3.56528 14.6844C3.57629 14.779 3.60926 14.8697 3.66155 14.9494C3.71384 15.029 3.78401 15.0953 3.86646 15.143C4.49569 15.5074 5.17042 15.7868 5.87303 15.9739C5.96562 15.9985 6.0627 16.0011 6.15644 15.9813C6.25018 15.9615 6.33796 15.92 6.41271 15.86L7.83374 14.7256C7.94382 14.7287 8.05389 14.7287 8.16397 14.7256L9.58882 15.8661C9.66363 15.9259 9.75145 15.9673 9.84518 15.987C9.93892 16.0066 10.036 16.004 10.1285 15.9793C10.8313 15.7923 11.5061 15.5126 12.1351 15.1476C12.2174 15.0998 12.2874 15.0335 12.3396 14.9538C12.3917 14.8742 12.4246 14.7835 12.4355 14.689L12.6373 12.8758C12.7168 12.8004 12.7932 12.7239 12.8666 12.6465L14.6844 12.4324C14.779 12.4214 14.8697 12.3885 14.9494 12.3362C15.029 12.2839 15.0953 12.2137 15.143 12.1312C15.5074 11.502 15.7868 10.8273 15.9739 10.1247C15.9985 10.0321 16.0011 9.93501 15.9813 9.84127C15.9615 9.74753 15.92 9.65975 15.86 9.585L14.7256 8.16397ZM13.4949 7.6671C13.5079 7.88808 13.5079 8.10963 13.4949 8.33061C13.4858 8.4819 13.5332 8.63118 13.628 8.7495L14.7127 10.1048C14.5882 10.5004 14.4288 10.8841 14.2364 11.2514L12.5089 11.4471C12.3584 11.4638 12.2195 11.5357 12.119 11.6489C11.9719 11.8144 11.8152 11.9711 11.6497 12.1183C11.5365 12.2187 11.4646 12.3577 11.4479 12.5081L11.256 14.2341C10.8887 14.4266 10.505 14.586 10.1094 14.7104L8.75332 13.6257C8.64481 13.539 8.51002 13.4918 8.37112 13.4919H8.33443C8.11345 13.5049 7.8919 13.5049 7.67092 13.4919C7.51963 13.4828 7.37035 13.5302 7.25203 13.6249L5.89291 14.7104C5.49735 14.5859 5.11364 14.4265 4.74629 14.2341L4.55061 12.5089C4.53391 12.3584 4.462 12.2195 4.3488 12.119C4.18331 11.9719 4.0266 11.8152 3.87946 11.6497C3.77896 11.5365 3.64005 11.4646 3.48961 11.4479L1.76357 11.2552C1.57109 10.8879 1.41172 10.5042 1.28735 10.1086L2.37204 8.75256C2.46676 8.63424 2.51416 8.48495 2.50505 8.33366C2.49205 8.11269 2.49205 7.89114 2.50505 7.67016C2.51416 7.51887 2.46676 7.36959 2.37204 7.25126L1.28735 5.89291C1.41181 5.49735 1.57118 5.11364 1.76357 4.74629L3.48884 4.55061C3.63929 4.53391 3.7782 4.462 3.87869 4.3488C4.02583 4.18331 4.18255 4.0266 4.34804 3.87946C4.46169 3.7789 4.53389 3.63967 4.55061 3.48884L4.74247 1.76357C5.10977 1.57109 5.49349 1.41172 5.88909 1.28735L7.24515 2.37204C7.36347 2.46676 7.51275 2.51416 7.66404 2.50505C7.88502 2.49205 8.10657 2.49205 8.32755 2.50505C8.47884 2.51416 8.62812 2.46676 8.74644 2.37204L10.1048 1.28735C10.5004 1.41181 10.8841 1.57118 11.2514 1.76357L11.4471 3.48884C11.4638 3.63929 11.5357 3.7782 11.6489 3.87869C11.8144 4.02583 11.9711 4.18255 12.1183 4.34804C12.2187 4.46124 12.3577 4.53314 12.5081 4.54984L14.2341 4.74171C14.4266 5.10901 14.586 5.49273 14.7104 5.88832L13.6257 7.24438C13.53 7.3637 13.4826 7.51452 13.4927 7.6671H13.4949Z" fill="#898989"/>
</svg>
