<svg width="16" height="13" viewBox="0 0 16 13" fill="none" xmlns="http://www.w3.org/2000/svg">
<path d="M15.9695 4.58485L14.8253 0.584109C14.7787 0.416146 14.6784 0.268074 14.5397 0.162576C14.4009 0.057077 14.2314 -3.09779e-05 14.0571 1.26064e-08H1.94287C1.5828 1.26064e-08 1.27075 0.240045 1.17473 0.584109L0.0305145 4.58485C-0.113512 5.08895 0.270559 5.60104 0.798658 5.60104H2.55899L1.59881 12.8024H3.19911L3.73521 8.80164H12.2728L12.8009 12.8024H14.4012L13.441 5.60104H15.2013C15.7294 5.60104 16.1135 5.08895 15.9695 4.58485ZM3.94324 7.20134L4.15928 5.60104H11.8407L12.0568 7.20134H3.94324ZM1.86286 4.00075L2.55098 1.6003H13.457L14.1451 4.00075H1.86286Z" fill="#4F4F4F"/>
</svg>
