<svg width="20" height="16" viewBox="0 0 20 16" fill="red" xmlns="http://www.w3.org/2000/svg">
<path d="M16.699 7.01322L17.8839 15.9H16.0858L15.4373 10.9869L15.4258 10.9H15.3381H4.66814H4.58064L4.56902 10.9867L3.91064 15.9H2.11235L3.29726 7.01322L3.31235 6.9H3.19814H0.998136C0.404627 6.9 -0.0274743 6.32364 0.134288 5.75747L1.56428 0.757498L1.56428 0.757498L1.56446 0.75688C1.6725 0.369714 2.02342 0.1 2.42814 0.1H17.5681C17.7641 0.0999652 17.9547 0.164171 18.1107 0.282782C18.2666 0.401393 18.3794 0.567868 18.4318 0.756708L18.432 0.757497L19.862 5.75747C20.0237 6.32364 19.5916 6.9 18.9981 6.9H16.7981H16.6839L16.699 7.01322ZM4.82904 8.98662L4.81373 9.1H4.92814H15.0681H15.1825L15.1672 8.98662L14.8972 6.98662L14.8855 6.9H14.7981H5.19814H5.11073L5.09904 6.98662L4.82904 8.98662ZM2.23201 4.97244L2.19544 5.1H2.32814H17.6781H17.8108L17.7743 4.97244L16.9143 1.97244L16.8935 1.9H16.8181H3.18814H3.11278L3.09201 1.97244L2.23201 4.97244Z" fill="#898989" stroke="#DBF8F6" stroke-width="0.2"/>
</svg>
