<svg width="15" height="14" viewBox="0 0 15 14" fill="none" xmlns="http://www.w3.org/2000/svg">
<path d="M7.40685 6.34873C6.53425 6.34873 5.78686 6.03764 5.16469 5.41546C4.54251 4.79329 4.23178 4.04626 4.23248 3.17436C4.23248 2.30106 4.54322 1.55332 5.16469 0.931146C5.78616 0.310382 6.53355 0 7.40685 0C8.28015 0 9.02754 0.310382 9.64901 0.931146C10.2705 1.55332 10.5812 2.30106 10.5812 3.17436C10.5812 4.04696 10.2705 4.79399 9.64901 5.41546C9.02754 6.03693 8.28015 6.34802 7.40685 6.34873ZM0 13.9989V12.2583C0 11.8217 0.126975 11.4132 0.380924 11.033C0.635578 10.6521 0.977704 10.3565 1.4073 10.1463C2.40617 9.66735 3.40539 9.30829 4.40496 9.06916C5.40524 8.82932 6.40587 8.7094 7.40685 8.7094C8.40854 8.7094 9.40917 8.82932 10.4087 9.06916C11.4083 9.309 12.4072 9.66805 13.4053 10.1463C13.8356 10.3565 14.1778 10.6521 14.4317 11.033C14.6864 11.4132 14.8137 11.8217 14.8137 12.2583V14L0 13.9989Z" fill="#898989"/>
</svg>
